# xmcd
#
# Track frame offsets:
#	150
#	23729
#	39865
#	55923
#	71399
#	90484
#	111440
#	126304
#	145675
#	159961
#
# Disc length: 2338 seconds
#
# Revision: 1
# Processed by: cddbd v1.5.2PL0 Copyright (c) Steve Scherf et al.
# Submitted via: audiograbber 1.83.01
#
DISCID=7a09200a
DTITLE=Alan Jackson - Angels And Alcohol
DYEAR=2015
DGENRE=Country
TTITLE0=You Can Always Come Home
TTITLE1=You Never Know
TTITLE2=Angels And Alcohol
TTITLE3=Gone Before You Met Me
TTITLE4=The One You're Waiting On
TTITLE5=Jim And Jack And Hank
TTITLE6=I Leave A Light On
TTITLE7=Flaws
TTITLE8=When God Paints
TTITLE9=Mexico, Tequila And Me
EXTD=
EXTT0=
EXTT1=
EXTT2=
EXTT3=
EXTT4=
EXTT5=
EXTT6=
EXTT7=
EXTT8=
EXTT9=
PLAYORDER=
